<svg xmlns="http://www.w3.org/2000/svg" id="Layer_1" data-name="Layer 1" viewBox="422.63 394.66 454.72 110.68"><defs><style>.cls-1{fill:#2b3142;}</style></defs><path class="cls-1" d="M627.66,428.66c1.65,1.59,4,2.39,7.1,2.39a9.76,9.76,0,0,0,5.71-1.66,6.85,6.85,0,0,0,2.93-3.51H653q-2.31,7.17-7.1,10.26a20.86,20.86,0,0,1-11.57,3.09,22.83,22.83,0,0,1-8.48-1.51,17.54,17.54,0,0,1-6.4-4.28,19.21,19.21,0,0,1-4-6.63,24.32,24.32,0,0,1-1.43-8.49,23.24,23.24,0,0,1,1.47-8.33,19.23,19.23,0,0,1,10.6-11.1,20.68,20.68,0,0,1,8.29-1.62,19,19,0,0,1,8.87,2,17.72,17.72,0,0,1,6.21,5.29,21.69,21.69,0,0,1,3.51,7.56,28,28,0,0,1,.77,8.87H625C625.12,424.49,626,427.07,627.66,428.66Zm12.38-21q-2-2.16-6-2.16a9.51,9.51,0,0,0-4.35.89,8.26,8.26,0,0,0-2.78,2.19,8.4,8.4,0,0,0-1.47,2.78A12.68,12.68,0,0,0,625,414h17.82A12.64,12.64,0,0,0,640,407.68Z"></path><path class="cls-1" d="M666.86,398.35v5.55h.24a12.47,12.47,0,0,1,5.4-5,15.51,15.51,0,0,1,6.78-1.58,18.71,18.71,0,0,1,7.21,1.19,10.76,10.76,0,0,1,4.44,3.32A12.72,12.72,0,0,1,693.2,407a31.92,31.92,0,0,1,.66,6.75v24.52h-11V415.7c0-3.29-.52-5.75-1.54-7.37s-2.86-2.42-5.48-2.42c-3,0-5.14.88-6.48,2.66s-2,4.69-2,8.75v20.9H656.45V398.35Z"></path><path class="cls-1" d="M710.79,428.66q2.48,2.38,7.1,2.39a9.76,9.76,0,0,0,5.71-1.66,6.85,6.85,0,0,0,2.93-3.51h9.64q-2.31,7.17-7.1,10.26a20.82,20.82,0,0,1-11.56,3.09,22.85,22.85,0,0,1-8.49-1.51,17.62,17.62,0,0,1-6.4-4.28,19.21,19.21,0,0,1-4-6.63,24.32,24.32,0,0,1-1.43-8.49,23.24,23.24,0,0,1,1.47-8.33,19.23,19.23,0,0,1,10.6-11.1,20.69,20.69,0,0,1,8.3-1.62,19,19,0,0,1,8.87,2,17.78,17.78,0,0,1,6.2,5.29,21.69,21.69,0,0,1,3.51,7.56,28,28,0,0,1,.77,8.87H708.1C708.25,424.49,709.15,427.07,710.79,428.66Zm12.38-21q-2-2.16-6-2.16a9.56,9.56,0,0,0-4.36.89,8.36,8.36,0,0,0-2.78,2.19,8.19,8.19,0,0,0-1.46,2.78,12.05,12.05,0,0,0-.5,2.62h17.81A12.56,12.56,0,0,0,723.17,407.68Z"></path><path class="cls-1" d="M750,398.35v7.4h.16a13.17,13.17,0,0,1,2.08-3.43,13.8,13.8,0,0,1,3-2.7,14.91,14.91,0,0,1,3.62-1.74,13.17,13.17,0,0,1,4-.61,8.75,8.75,0,0,1,2.39.38v10.18c-.51-.1-1.13-.19-1.85-.27s-1.41-.11-2.08-.11a11.67,11.67,0,0,0-5.09,1,8.72,8.72,0,0,0-3.35,2.74,11,11,0,0,0-1.82,4.05,22,22,0,0,0-.54,5v18H739.58V398.35Z"></path><path class="cls-1" d="M804.23,441.15a13.5,13.5,0,0,1-2.81,5.75,16.83,16.83,0,0,1-6.25,4.51q-4.09,1.86-10.95,1.85a25.4,25.4,0,0,1-6-.73,19,19,0,0,1-5.55-2.28,13.51,13.51,0,0,1-4.17-4,11.52,11.52,0,0,1-1.89-5.82h10.88a6.23,6.23,0,0,0,3,4.28,10.78,10.78,0,0,0,5.17,1.2q4.64,0,6.75-2.78a10.86,10.86,0,0,0,2-7V430.9h-.15a10.87,10.87,0,0,1-5.05,4.66,16.43,16.43,0,0,1-6.9,1.51,17.35,17.35,0,0,1-7.72-1.59,14.63,14.63,0,0,1-5.32-4.31,18.14,18.14,0,0,1-3.05-6.41,30.42,30.42,0,0,1-1-7.75,24.7,24.7,0,0,1,1.12-7.44,19.43,19.43,0,0,1,3.28-6.33,15.73,15.73,0,0,1,5.36-4.35,16.08,16.08,0,0,1,7.36-1.62,15.47,15.47,0,0,1,6.9,1.46,11.93,11.93,0,0,1,5,4.94h.15v-5.32h10.42v37.33A26.45,26.45,0,0,1,804.23,441.15Zm-15-13.26a8.58,8.58,0,0,0,2.93-2.47,11.09,11.09,0,0,0,1.74-3.51,14.77,14.77,0,0,0,.57-4.13,22.46,22.46,0,0,0-.46-4.66,11.66,11.66,0,0,0-1.54-3.9,8,8,0,0,0-2.85-2.7,9,9,0,0,0-4.48-1,8,8,0,0,0-4,.93,8.31,8.31,0,0,0-2.78,2.5,10.8,10.8,0,0,0-1.62,3.63,18.11,18.11,0,0,0-.5,4.28,21.28,21.28,0,0,0,.43,4.28,11.63,11.63,0,0,0,1.46,3.82,8.63,8.63,0,0,0,2.74,2.77,7.74,7.74,0,0,0,4.24,1.08A8.8,8.8,0,0,0,789.23,427.89Z"></path><path class="cls-1" d="M827.06,450.1q-3.16,2.08-8.79,2.08c-1.13,0-2.25,0-3.36-.11l-3.35-.27v-9l3.16.31a23.38,23.38,0,0,0,3.24.08,4.26,4.26,0,0,0,3.2-1.7,5.51,5.51,0,0,0,1-3.24,6.61,6.61,0,0,0-.46-2.47l-14-37.4h11.64l9,27.3h.15l8.72-27.3h11.34L832,443.16C830.81,446.4,829.17,448.71,827.06,450.1Z"></path><path class="cls-1" d="M671.7,500.87V477.58c0-1.4-.05-2.75-.16-4a9.17,9.17,0,0,0-.95-3.44,6,6,0,0,0-2.35-2.4,8.38,8.38,0,0,0-4.11-.88,7.93,7.93,0,0,0-4.21,1,7.38,7.38,0,0,0-2.53,2.62,10.27,10.27,0,0,0-1.19,3.59,25.61,25.61,0,0,0-.29,3.93v22.88H645.39v-23c0-1.23,0-2.48-.08-3.72a10.94,10.94,0,0,0-.73-3.54,5.7,5.7,0,0,0-2.22-2.71,8.13,8.13,0,0,0-4.46-1,9.07,9.07,0,0,0-2.29.39,7.58,7.58,0,0,0-2.78,1.47,8.63,8.63,0,0,0-2.3,3.1,12.51,12.51,0,0,0-.94,5.21v23.86H619.08v-41h9.86v7.32l.94-1.64.15-.21a16,16,0,0,1,5.31-4.89,14.5,14.5,0,0,1,7.11-1.72,16.53,16.53,0,0,1,7,1.5,9.74,9.74,0,0,1,4.74,5.18l.37.85.52-.77a17.47,17.47,0,0,1,4.93-4.73,13.05,13.05,0,0,1,7.32-2,22.32,22.32,0,0,1,6,.79,12.06,12.06,0,0,1,4.68,2.5,11.53,11.53,0,0,1,3,4.47,18.59,18.59,0,0,1,1.1,6.76v27.59Z"></path><path class="cls-1" d="M701.86,501.92a19.6,19.6,0,0,1-7.4-1.18,10.52,10.52,0,0,1-4.46-3.29,13,13,0,0,1-2.3-5.23,33.51,33.51,0,0,1-.68-7V459.9h10.52v23.2c0,3.55.57,6.25,1.7,8s3.26,2.8,6.19,2.8c3.3,0,5.73-1,7.23-3s2.21-5.15,2.21-9.52V459.9h10.52v41h-9.95V495h-1l-.14.25a12.63,12.63,0,0,1-5.47,5.08A16.43,16.43,0,0,1,701.86,501.92Z"></path><path class="cls-1" d="M749.4,501.27a34.63,34.63,0,0,1-5-.35,11.54,11.54,0,0,1-4-1.36,7.07,7.07,0,0,1-2.69-2.81,10.17,10.17,0,0,1-1-4.87V466.6h-7v-6.7h7V447.31h10.52V459.9h8.44v6.7h-8.44v21.3c0,2.1.36,3.5,1.12,4.25s2.15,1.13,4.26,1.13c.66,0,1.31,0,1.91-.09.39,0,.78-.08,1.15-.14v7.89a26.91,26.91,0,0,1-2.76.25C751.68,501.25,750.51,501.27,749.4,501.27Z"></path><path class="cls-1" d="M775.42,501.92a19.67,19.67,0,0,1-7.4-1.18,10.52,10.52,0,0,1-4.46-3.29,13,13,0,0,1-2.3-5.23,33.51,33.51,0,0,1-.68-7V459.9H771.1v23.2c0,3.55.57,6.25,1.7,8s3.26,2.8,6.19,2.8c3.3,0,5.73-1,7.23-3s2.21-5.15,2.21-9.52V459.9H799v41H789v-7.81l-1,2-.14.25a12.58,12.58,0,0,1-5.47,5.08A16.43,16.43,0,0,1,775.42,501.92Z"></path><path class="cls-1" d="M817,501.92a19.94,19.94,0,0,1-5.47-.71,12.29,12.29,0,0,1-4.37-2.18,10.05,10.05,0,0,1-2.9-3.71,12.7,12.7,0,0,1-1.05-5.39,11.74,11.74,0,0,1,1.2-5.65,10,10,0,0,1,3.09-3.52,14.34,14.34,0,0,1,4.39-2,50.29,50.29,0,0,1,5.1-1.08c1.72-.27,3.43-.49,5.09-.65a30.75,30.75,0,0,0,4.54-.74,8.34,8.34,0,0,0,3.28-1.52,3.61,3.61,0,0,0,1.25-3.14,6.59,6.59,0,0,0-.68-3.19,5,5,0,0,0-1.8-1.89,7,7,0,0,0-2.54-.88,19.83,19.83,0,0,0-3-.21,9.28,9.28,0,0,0-5.67,1.57A6.78,6.78,0,0,0,815,471.8H804.5a12.65,12.65,0,0,1,1.9-5.95,13.39,13.39,0,0,1,4.39-4.15,19.45,19.45,0,0,1,6.05-2.26,35.12,35.12,0,0,1,6.85-.68,47.38,47.38,0,0,1,6.34.44,19.54,19.54,0,0,1,5.78,1.7,11.36,11.36,0,0,1,4.2,3.46,9.71,9.71,0,0,1,1.6,5.83V492a44.06,44.06,0,0,0,.33,5.5,12.37,12.37,0,0,0,.81,3.33H832.26a14.62,14.62,0,0,1-.4-1.58,17,17,0,0,1-.28-2l-.08-1.13-.79.81a14.51,14.51,0,0,1-6.28,3.85A25.67,25.67,0,0,1,817,501.92Zm13.3-21.47a4.59,4.59,0,0,1-1.65.91,18.19,18.19,0,0,1-2.29.6c-.83.16-1.71.29-2.6.4s-1.89.25-2.79.41a21.52,21.52,0,0,0-2.63.66A8.27,8.27,0,0,0,816,484.6a5.75,5.75,0,0,0-1.64,1.92,6.1,6.1,0,0,0-.63,2.92,5.93,5.93,0,0,0,.63,2.84,4.72,4.72,0,0,0,1.72,1.85,6.9,6.9,0,0,0,2.45.92,14.79,14.79,0,0,0,2.77.26,10.74,10.74,0,0,0,5.54-1.21,8.12,8.12,0,0,0,2.94-2.91,9.12,9.12,0,0,0,1.16-3.39,22.42,22.42,0,0,0,.21-2.67V479.7Z"></path><rect class="cls-1" x="848.1" y="443.9" width="10.52" height="56.97"></rect><circle class="cls-1" cx="445.79" cy="417.82" r="23.16"></circle><circle class="cls-1" cx="507.93" cy="417.82" r="23.16"></circle><circle class="cls-1" cx="570.07" cy="417.82" r="23.16"></circle><circle class="cls-1" cx="445.79" cy="482.18" r="23.16"></circle><circle class="cls-1" cx="570.07" cy="482.18" r="23.16"></circle><path class="cls-1" d="M865,445.27v-1.16h5.15v1.16h-1.89v5.12h-1.38v-5.12Z"></path><path class="cls-1" d="M872.55,444.11l1.47,4.32h0l1.39-4.32h1.94v6.28h-1.29v-4.45h0l-1.54,4.45h-1.07L871.91,446h0v4.41h-1.3v-6.28Z"></path></svg>